<?xml version="1.0" standalone="no"?>
<!DOCTYPE svg PUBLIC "-//W3C//DTD SVG 20010904//EN"
 "http://www.w3.org/TR/2001/REC-SVG-20010904/DTD/svg10.dtd">
<svg version="1.0" xmlns="http://www.w3.org/2000/svg"
 width="1024.000000pt" height="1024.000000pt" viewBox="0 0 1024.000000 1024.000000"
 preserveAspectRatio="xMidYMid meet">
<metadata>
Created by potrace 1.14, written by Peter Selinger 2001-2017
</metadata>
<g transform="translate(0.000000,1024.000000) scale(0.100000,-0.100000)"
fill="#000000" stroke="none">
<path d="M5049 9168 c-76 -131 -88 -153 -187 -323 -41 -71 -83 -143 -92 -160
-10 -16 -50 -86 -90 -155 -40 -69 -81 -140 -91 -158 -11 -18 -54 -93 -96 -165
-42 -73 -125 -217 -186 -322 -60 -104 -117 -203 -127 -220 -9 -16 -68 -118
-130 -225 -62 -107 -124 -215 -138 -240 -14 -25 -44 -76 -67 -115 -22 -38 -44
-77 -48 -85 -4 -8 -16 -28 -26 -45 -11 -16 -28 -46 -38 -65 -11 -19 -102 -177
-202 -350 -101 -173 -237 -409 -304 -525 -66 -115 -139 -241 -162 -280 -23
-38 -126 -216 -229 -395 -103 -179 -192 -332 -197 -340 -5 -8 -81 -141 -170
-295 -145 -253 -348 -604 -374 -647 -5 -9 -17 -29 -26 -45 -23 -41 -273 -474
-410 -711 -66 -112 -119 -206 -119 -208 0 -3 -17 -33 -39 -67 -21 -34 -124
-210 -228 -392 -281 -487 -669 -1159 -719 -1245 -161 -276 -361 -625 -359
-628 3 -3 9847 -3 9850 0 1 2 -67 122 -152 268 -85 146 -158 274 -164 285 -5
11 -18 34 -28 50 -11 17 -28 46 -38 65 -11 19 -77 134 -147 255 -71 121 -140
240 -154 265 -14 25 -89 155 -167 290 -120 206 -406 701 -465 805 -10 17 -68
117 -129 223 -61 106 -120 207 -130 225 -10 17 -46 79 -80 135 -33 57 -61 106
-61 108 0 2 -17 32 -38 66 -21 35 -41 70 -45 78 -4 8 -17 31 -28 50 -12 19
-79 136 -150 260 -71 124 -134 232 -139 240 -5 8 -28 47 -50 85 -22 39 -51 88
-65 110 -13 22 -36 63 -51 90 -14 28 -35 62 -45 77 -11 14 -19 29 -19 32 0 3
-25 46 -55 97 -30 50 -55 94 -55 98 0 3 -11 22 -23 41 -13 19 -36 58 -52 85
-56 102 -218 381 -236 407 -11 15 -19 29 -19 32 0 3 -82 146 -181 318 -100
172 -234 403 -297 513 -64 110 -163 281 -220 380 -57 99 -113 196 -124 215
-79 137 -290 501 -307 530 -11 19 -24 42 -28 50 -4 8 -22 38 -40 67 -18 29
-33 54 -33 56 0 3 -45 83 -101 178 -56 96 -111 192 -123 214 -30 53 -164 282
-187 320 -10 17 -22 37 -26 45 -7 16 -86 154 -103 180 -5 8 -22 38 -38 65 -60
106 -77 134 -156 270 -44 77 -89 154 -98 170 -10 17 -29 51 -43 78 -14 26 -29
47 -34 47 -5 0 -37 -50 -72 -112z"/>
</g>
</svg>
